# xmcd CD database file
#
# Track frame offsets:
#	150
#	19851
#	46379
#	63807
#	75721
#	90161
#	112987
#	135788
#	152739
#	171878
#	190148
#	213008
#
# Disc length: 3190 seconds
#
# Revision: 2
# Processed by: cddbd v1.5PL3 Copyright (c) Steve Scherf et al.
# Submitted via: CDex 1.51
#
DISCID=850c740c
DTITLE=Sojiiro - Japanese Spirit
DYEAR=2000
DGENRE=New Age
TTITLE0=(Japanese title)
TTITLE1=Japanese Spirit (Takio Version
TTITLE2=Takio's Song
TTITLE3=(Japanese title)
TTITLE4=(Japanese title)
TTITLE5=(Japanese title)
TTITLE6=TAKIO VERSION
TTITLE7=(Japanese title)
TTITLE8=(Japanese title)
TTITLE9=(Japanese title)
TTITLE10=(Japanese title)
TTITLE11=Japanese Spirit
EXTD=YEAR: 2000
EXTT0=
EXTT1=
EXTT2=
EXTT3=
EXTT4=
EXTT5=
EXTT6=
EXTT7=
EXTT8=
EXTT9=
EXTT10=
EXTT11=
PLAYORDER=
